<svg width="123" height="148" viewBox="0 0 123 148" fill="none" xmlns="http://www.w3.org/2000/svg">
<path d="M30.2715 97.6777C29.8273 97.7329 29.3831 97.788 28.9388 97.8431C27.6489 97.8247 26.3589 97.7531 25.0708 97.7953C19.3459 97.9846 13.621 98.2052 7.89605 98.4147L7.86814 98.4C7.72874 94.7369 7.69156 91.0757 7.77334 87.1589H54.3626V78.9559C54.3496 78.2557 54.3348 77.5554 54.3218 76.8551C54.3887 71.9109 54.4537 66.9668 54.5206 62.0207C55.5076 60.328 54.9054 58.5929 54.8812 56.7475H52.5113C52.2251 58.3172 51.9463 59.8446 51.6675 61.3738C51.3106 61.6495 50.8273 61.8517 50.6173 62.2119C48.5894 65.6581 46.4983 69.0731 43.7753 72.0249C41.2009 74.815 38.8403 78.1197 35.6526 79.9558C31.5597 82.3139 27.1228 84.8394 21.8886 83.8432C21.7325 83.7605 21.567 83.7182 21.3905 83.7145C20.3626 81.009 20.515 80.4135 22.766 78.9118C26.976 76.1034 31.2957 73.4475 35.3886 70.4846C38.5708 68.1816 41.2418 65.307 42.9835 61.7174C44.1619 61.0852 43.7641 58.9384 45.6582 58.9954C45.7976 57.6133 46.766 56.5288 47.16 55.3286C48.6173 50.8807 50.753 46.8077 53.1879 42.8432C53.5132 42.312 53.4704 41.5602 53.5987 40.9096C53.3775 40.5585 53.2418 40.0494 52.9203 39.8767C45.6098 35.9397 40.2232 30.0379 36.0726 23.0921C33.8143 19.3132 32.7883 14.9774 32.7121 10.4909C32.6712 8.06841 33.5634 5.96024 34.7511 3.9697C36.8087 0.517961 42.0894 -1.28879 46.8124 1.45717C50.2455 3.45322 52.7232 6.42159 54.5299 9.83473C55.9277 12.4759 56.8571 15.3597 58.0095 18.1296C58.4927 19.2949 59.0132 20.4454 59.5671 21.7192C60.9946 19.0045 62.1842 16.3798 63.6916 13.95C66.5987 9.26312 70.2084 5.17911 75.0467 2.32103C76.1396 1.6759 77.3218 1.14105 78.5225 0.718313C82.1025 -0.544385 85.4816 -0.261343 88.2604 2.52505C91.1582 5.43091 92.5355 8.80545 91.1545 12.9483C89.766 17.1132 87.3311 20.6384 84.3088 23.7318C78.5392 29.6391 72.8627 35.6676 65.7103 40.2203C66.2809 40.5879 66.6675 40.8361 67.0541 41.0842C66.8738 41.6043 66.6935 42.1245 66.5132 42.6465C66.4946 45.8685 66.45 49.0905 66.4891 52.3106C66.4946 52.7279 66.9277 53.1396 67.1638 53.5531C68.0243 56.1557 69.9463 57.9275 71.8385 59.8078C72.6043 60.5687 73.3162 60.7212 74.1731 60.9271C74.2753 61.2451 74.2772 61.7009 74.4965 61.8571C76.9909 63.629 79.7939 65.013 81.6749 67.5567C81.8032 67.7295 82.333 67.6137 82.675 67.6321C83.0727 67.724 83.4705 67.8159 83.8683 67.9078C85.7028 68.7992 87.4556 69.9902 89.3924 70.5049C91.9779 71.1923 94.4296 72.0524 96.7047 73.4254C97.0114 73.8555 97.3181 74.2874 97.6248 74.7175C98.0077 75.631 98.3906 76.5445 98.7902 77.4929C98.0449 78.048 97.517 78.7777 96.9389 78.8181C93.2252 79.0791 89.4184 79.7279 85.8645 78.1693C82.5932 76.7356 79.4612 74.9932 76.266 73.3868C75.8292 73.1111 75.3924 72.8373 74.9556 72.5616C72.2828 70.3045 69.6099 68.0475 66.4073 65.3438V78.9559C66.3199 79.1508 66.2883 79.353 66.3088 79.5643C65.1842 82.0824 65.8087 84.6059 66.0466 87.1736H80.5374C81.2512 87.1626 81.9667 87.1497 82.6805 87.1387C92.1508 87.1809 101.619 87.2012 111.089 87.2931C112.444 87.3059 113.794 87.6791 115.147 87.8849C115.129 88.168 115.11 88.4528 115.091 88.7359C113.79 89.4472 114.723 90.5206 114.642 91.4304C114.487 92.2226 114.333 93.0129 114.138 94.0219C113.316 94.1635 112.428 94.3178 111.537 94.4722C109.931 94.6101 108.329 94.8233 106.721 94.8729C97.1731 95.1652 87.6248 95.4298 78.0764 95.678C75.3924 95.7478 72.7028 95.6964 70.0207 95.7846C69.2679 95.8085 68.5262 96.1319 67.779 96.3176C66.4351 96.1981 65.5021 96.7587 65.2809 98.0821C65.1136 99.0911 65.1898 100.139 65.1564 101.17C64.8664 103.896 64.1991 106.643 64.3794 109.338C64.608 112.777 64.1414 116.166 64.24 119.579C64.2976 121.544 64.2177 123.514 64.1396 125.481C64.0058 128.808 63.8236 132.134 63.6619 135.461C63.6136 136.63 63.5653 137.801 63.5169 138.97C63.2734 141.755 63.03 144.541 62.7865 147.325C60.3236 148.311 57.8645 148.061 55.2753 147.561C55.2102 146.169 55.1563 145.039 55.1024 143.907C55.0225 138.794 54.9444 133.678 54.8645 128.565C54.8961 127.633 54.9258 126.701 54.9574 125.77C54.9407 116.782 55.5095 107.783 54.4741 98.8117C54.2511 96.8837 53.7195 96.3341 51.8682 96.5032C50.5764 96.6208 49.2939 96.8469 48.0076 97.0234C47.0708 97.062 46.1321 97.1006 45.1953 97.1392C40.7511 97.152 36.305 97.1502 31.8607 97.2017C31.331 97.2072 30.8031 97.5141 30.2752 97.6814L30.2715 97.6777ZM61.6266 34.9876C62.9184 34.0557 63.8348 33.5246 64.5932 32.8243C68.7995 28.9461 73.0244 25.0845 77.1247 21.0979C79.043 19.2342 80.8627 17.2198 82.4203 15.0583C83.4705 13.6026 84.3571 11.8344 84.6601 10.0957C85.1675 7.17698 83.0839 5.72499 80.3051 6.75978C74.885 8.77973 71.9314 13.6283 67.9574 17.3062C65.4742 22.8624 62.8125 28.3543 61.6266 34.9876ZM55.082 38.8253C55.1266 34.7211 55.3645 31.3043 54.4723 27.858C52.8571 21.6254 50.147 15.9111 46.6247 10.5515C45.9314 9.49654 45.0503 8.50401 44.0708 7.70633C42.3366 6.29475 40.2585 7.03179 39.7251 9.17856C39.5597 9.84023 39.5671 10.5773 39.6507 11.2629C40.1284 15.1833 40.8143 19.1055 42.9872 22.4764C45.8794 26.9611 49.0225 31.2914 52.1229 35.6419C52.8422 36.6528 53.8217 37.4836 55.0838 38.8271L55.082 38.8253Z" fill="#EC634C"/>
<path d="M48.005 97.0178C49.2913 96.8395 50.5738 96.6152 51.8656 96.4976C53.7169 96.3285 54.2485 96.8781 54.4716 98.8061C55.5069 107.777 54.9362 116.776 54.9548 125.764C54.1184 126.115 53.1221 126.288 52.4752 126.85C50.4882 128.576 48.6834 130.502 46.7206 132.254C43.557 135.075 40.2894 137.784 37.1314 140.613C35.5273 142.05 34.1016 143.679 32.5254 145.146C32.083 145.557 31.3897 145.93 30.808 145.934C25.0477 145.974 19.2894 145.938 13.5291 145.905C13.3284 145.905 13.1276 145.704 12.793 145.524C12.8246 145.151 12.689 144.519 12.9269 144.315C15.5607 142.058 18.2206 139.83 20.9362 137.67C23.8042 135.389 26.7689 133.228 29.6407 130.951C34.6035 127.016 39.5366 123.046 44.4604 119.064C47.4288 116.664 50.3656 114.223 53.2987 111.779C54.3953 110.865 54.8024 109.761 53.808 108.06C48.5998 111.4 44.3005 115.773 39.4994 119.496C34.6221 123.279 29.9994 127.383 25.15 131.203C20.2782 135.038 15.2633 138.696 9.87854 142.756C9.87854 139.389 9.9622 136.608 9.84324 133.836C9.78376 132.462 10.5143 131.697 11.3916 130.901C14.2708 128.291 17.1239 125.655 20.0161 123.058C24.6053 118.936 29.1983 114.817 33.8265 110.735C37.5459 107.452 41.479 104.386 44.9715 100.885C46.0589 99.795 47.8563 98.9385 48.0069 97.0141L48.005 97.0178Z" fill="#F29096"/>
<path d="M66.5088 42.6427C66.6891 42.1225 66.8694 41.6024 67.0497 41.0804C67.7374 40.983 68.4251 40.801 69.1129 40.801C86.4642 40.7789 103.816 40.7734 121.167 40.7734C121.622 40.7734 122.078 40.8378 122.968 40.9039C123.024 47.1715 122.987 53.3729 122.998 59.8518C121.009 60.0282 119.081 60.201 117.154 60.3719C116.972 60.2157 116.786 60.2083 116.593 60.3535C115.829 60.258 115.065 60.1624 114.299 60.0686C105.998 60.0778 97.6984 60.0742 89.3973 60.1201C88.7895 60.1238 88.1836 60.4969 87.5776 60.6991C83.1073 60.7744 78.639 60.848 74.1687 60.9233C73.3118 60.7193 72.5999 60.5649 71.8341 59.804C69.94 57.9237 68.0199 56.1519 67.1593 53.5493C67.1389 50.5258 67.1519 47.5005 67.0739 44.4788C67.0571 43.8631 66.7058 43.2547 66.5088 42.6427Z" fill="#45888E"/>
<path d="M53.5946 40.9041C53.4664 41.5547 53.5091 42.3065 53.1838 42.8376C50.7489 46.8022 48.6132 50.8733 47.156 55.3231C46.7619 56.5251 45.7935 57.6096 45.6541 58.9899C43.76 58.9348 44.1578 61.0797 42.9794 61.7119C30.7954 61.9141 18.6113 62.1145 6.42727 62.3166H0.306462C0.207949 61.337 0.0685348 60.5669 0.0648173 59.7986C0.0425124 54.2368 0.0313582 48.6751 0.0629567 43.1115C0.0666742 42.3009 -0.401699 41.1099 1.1615 41.0622L2.31577 41.1007C13.0277 41.1007 23.7396 41.1026 34.4515 41.1044C34.7991 41.1044 35.1467 41.1044 35.4942 41.1044C39.1522 41.1044 42.8121 41.1044 46.4701 41.1044C47.0444 41.1063 47.6207 41.1099 48.195 41.1118C49.9943 41.0419 51.7935 40.9721 53.5946 40.9004V40.9041Z" fill="#45888E"/>
<path d="M6.42724 62.3174C18.6113 62.1152 30.7953 61.9149 42.9794 61.7127C41.2377 65.3041 38.5685 68.1769 35.3845 70.4799C31.2897 73.4428 26.97 76.1005 22.7619 78.9071C20.5109 80.4087 20.3604 81.0043 21.3864 83.7098C20.3529 84.4468 18.6912 84.4983 18.4644 86.2885C20.2525 87.0274 21.4998 86.3896 22.615 85.2041C22.312 84.6361 22.0983 84.2373 21.8845 83.8366C27.1187 84.8346 31.5574 82.3074 35.6485 79.9493C38.8344 78.1131 41.1968 74.8102 43.7712 72.0183C46.4924 69.0684 48.5853 65.6515 50.6132 62.2053C50.8251 61.8469 51.3065 61.6429 51.6634 61.3672C52.615 61.5822 53.5649 61.7991 54.5166 62.0142C54.4496 66.9584 54.3846 71.9025 54.3177 76.8486C51.9385 78.42 49.4589 79.8665 47.2154 81.6089C45.6448 82.8275 44.3976 84.4505 42.7489 86.158C44.3083 86.7755 45.286 86.827 46.3046 85.9245C48.9626 83.5719 51.6708 81.2707 54.3585 78.9494V87.1523H7.76929C7.68564 91.0691 7.72468 94.7303 7.86408 98.3935C7.61501 98.0718 7.15217 97.752 7.14659 97.4267C7.08897 93.2489 7.03877 89.0675 7.13543 84.8916C7.15401 84.0958 7.62244 83.0885 8.22467 82.561C12.8808 78.4715 17.5202 74.3489 22.3734 70.4965C25.5109 68.006 28.2061 65.045 31.4291 62.6703C29.0332 61.926 29.0425 61.9351 27.6541 63.1317C21.6689 68.2964 15.6894 73.4685 9.67263 78.5983C9.09828 79.0891 8.27856 79.2968 7.46629 79.6882C5.76368 73.8251 6.52579 68.0427 6.42356 62.3137L6.42724 62.3174Z" fill="#F29096"/>
<path d="M67.7733 96.3121C68.5205 96.1265 69.2622 95.803 70.015 95.7791C72.699 95.6909 75.3868 95.7423 78.0708 95.6725C87.6191 95.4244 97.1693 95.1597 106.716 94.8675C108.324 94.8178 109.928 94.6046 111.532 94.4668C106.764 97.8469 102.192 101.462 97.8663 105.39C93.4611 109.389 88.9685 113.295 84.5224 117.252C79.6117 121.623 74.7325 126.027 69.7994 130.372C67.8068 132.127 65.7083 133.765 63.6562 135.456C63.818 132.129 64.0001 128.804 64.134 125.475C64.212 123.509 64.2919 121.538 64.2343 119.574C64.1358 116.161 64.6023 112.771 64.3737 109.332C64.1934 106.638 64.8607 103.888 65.1507 101.164C67.0559 99.8631 69.16 98.775 70.4815 96.4812C69.383 96.4132 68.5782 96.3636 67.7733 96.3139V96.3121ZM91.3886 96.0438C89.2882 95.4593 88.002 95.6505 86.7139 96.8507C84.2938 99.1077 81.6525 101.131 79.1674 103.324C76.9146 105.313 74.7622 107.412 72.5392 109.435C70.3124 111.461 68.0559 113.455 65.8087 115.458C64.6767 116.468 64.7139 117.519 65.6023 119.028C74.2771 111.295 82.712 103.776 91.3886 96.0419V96.0438Z" fill="#F29096"/>
<path d="M62.782 147.32C63.0255 144.535 63.269 141.749 63.5125 138.964C65.1538 138.462 66.0013 137.124 67.1147 135.954C69.5032 133.441 72.217 131.226 74.8452 128.944C78.1296 126.091 81.4772 123.306 84.7727 120.465C90.124 115.853 95.4624 111.229 100.791 106.594C103.371 104.349 105.875 102.017 108.501 99.828C109.992 98.5837 111.659 97.547 113.63 96.1465C113.334 99.4898 113.167 102.315 112.806 105.118C112.546 107.14 112.065 109.137 111.602 111.128C111.488 111.611 111.154 112.142 110.762 112.449C105.018 116.921 99.3434 121.49 93.4252 125.727C91.598 127.034 90.2913 129.175 87.7523 129.563C87.2003 129.648 86.7821 130.515 86.2802 130.998C85.3174 131.927 84.3713 132.877 83.3583 133.75C79.8824 136.748 76.349 139.681 72.8991 142.708C70.4382 144.868 68.0571 147.057 64.388 146.732C63.8731 146.686 63.3155 147.112 62.7783 147.322L62.782 147.32Z" fill="#F29096"/>
<path d="M111.484 114.762C111.153 117.64 110.915 119.835 110.638 122.025C110.538 122.812 110.292 123.58 110.192 124.365C109.716 128.102 109.235 131.838 108.818 135.581C108.513 138.316 108.246 141.058 108.073 143.804C107.872 146.989 106.327 148.268 103.162 147.766C102.023 147.586 100.868 147.419 99.7196 147.404C95.9594 147.357 92.1992 147.419 88.439 147.369C83.3182 147.301 78.1601 147.816 72.7939 146.329C85.0951 135.331 98.1211 125.406 111.484 114.762Z" fill="#F29096"/>
<path d="M116.592 60.3528C116.786 60.2075 116.972 60.2131 117.154 60.3711C117.25 64.4 117.598 68.4473 116.505 72.4026C116.28 73.215 115.899 74.1597 115.275 74.656C113.321 76.2146 111.161 77.5159 109.189 79.0524C107.089 80.6883 105.107 82.4729 103.083 84.2043C102.299 84.8752 101.54 85.5754 100.836 86.204C103.055 86.7352 103.079 86.7647 104.215 85.8659C107.914 82.9398 111.596 79.9898 115.663 76.7476C115.734 79.727 116.198 82.2377 115.349 84.7962C115.035 85.7427 115.197 86.8455 115.143 87.8785C113.791 87.6726 112.44 87.3013 111.085 87.2866C101.617 87.1929 92.1463 87.1745 82.6761 87.1322C85.6946 84.7998 88.7151 82.4674 92.0422 79.8979C89.5868 79.4201 87.9734 79.5395 86.4046 81.043C84.7225 82.6549 82.6314 83.8496 80.5348 85.3586V87.1671H66.044C65.8042 84.6013 65.1797 82.0778 66.3061 79.5579C66.3954 80.2214 66.4864 80.8831 66.6128 81.8113C67.3544 81.4823 67.9121 81.3426 68.3359 81.0264C70.1463 79.6774 72.0087 78.3742 73.6686 76.8579C74.7243 75.8948 76.3285 75.2055 76.2634 73.3804C79.4567 74.9868 82.5905 76.7292 85.8619 78.1628C89.4158 79.7215 93.2225 79.0708 96.9363 78.8117C97.5144 78.7712 98.0441 78.0415 98.7876 77.4865C98.3898 76.5362 98.0051 75.6246 97.6222 74.7111C98.1426 74.5052 98.743 74.4042 99.1705 74.0807C103.466 70.8091 107.765 67.5393 111.99 64.1795C113.55 62.9388 115.483 62.1209 116.592 60.3528Z" fill="#F29096"/>
<path d="M30.2712 97.677C30.7991 97.5098 31.327 97.2028 31.8567 97.1973C36.3009 97.1458 40.747 97.1476 45.1913 97.1348C42.537 99.4653 39.8772 101.792 37.2285 104.13C34.4497 106.582 31.6727 109.039 28.905 111.504C24.0965 115.785 19.2898 120.069 14.4924 124.363C12.8065 125.872 11.1522 127.418 9.50351 128.928C9.1615 126.228 8.67638 123.633 8.58344 121.023C8.54813 120.043 9.1801 118.761 9.93475 118.081C13.6913 114.697 17.5927 111.469 21.4385 108.181C22.0574 107.652 22.6485 107.093 23.2582 106.553C25.511 104.557 27.7786 102.577 30.0091 100.557C30.6745 99.9561 31.2359 99.243 32.1058 98.3001C31.2619 98.0152 30.7656 97.8479 30.2712 97.6807V97.677Z" fill="#F29096"/>
<path d="M7.89539 98.414C13.6203 98.2045 19.3452 97.9839 25.0701 97.7946C26.3582 97.7523 27.6482 97.8222 28.9382 97.8424C27.4995 99.14 26.0757 100.456 24.6185 101.733C19.4846 106.236 14.3396 110.729 8.9177 115.469C7.86751 109.545 7.51992 104.003 7.89353 98.4159L7.89539 98.414Z" fill="#F29096"/>
<path d="M54.8608 128.561C54.9408 133.674 55.0188 138.789 55.0988 143.902C54.753 143.935 54.2326 143.836 54.0876 144.022C52.4241 146.152 50.1118 146.062 47.7437 146.02C43.9389 145.952 40.1322 146.001 35.4277 146.001C38.5355 143.226 41.1675 141.2 43.3962 138.809C46.833 135.122 51.2716 132.551 54.5523 128.719C54.6211 128.638 54.7568 128.612 54.8627 128.561H54.8608Z" fill="#F29096"/>
<path d="M114.638 91.4269C114.719 90.5171 113.786 89.4437 115.087 88.7324C116.58 89.8977 114.846 90.5374 114.638 91.4269Z" fill="#F29096"/>
<path d="M96.7027 73.422C94.4276 72.0472 91.9759 71.1888 89.3904 70.5014C87.4536 69.985 85.7008 68.794 83.8662 67.9044C85.0762 67.2997 86.3718 66.8144 87.4814 66.0627C89.9164 64.4177 92.2584 62.6385 94.6394 60.9127C100.262 60.8538 105.885 60.7932 111.507 60.7344C111.205 61.2031 110.994 61.782 110.584 62.1239C107.74 64.4783 104.853 66.7813 101.985 69.1064C100.219 70.5382 98.4648 71.9829 96.7045 73.422H96.7027Z" fill="#F29096"/>
<path d="M66.4032 78.952V65.3398C69.6077 68.0454 72.2806 70.3024 74.9516 72.5576C72.3326 74.6621 69.7173 76.7703 67.0835 78.8583C66.9292 78.9796 66.6319 78.9244 66.4014 78.9502L66.4032 78.952Z" fill="#F29096"/>
<path d="M74.1709 60.9235C78.6412 60.8481 83.1096 60.7746 87.5798 60.6992L88.9776 61.0944C87.8029 63.2136 85.736 64.366 83.8865 65.7702C83.3308 66.193 83.0705 66.998 82.6746 67.6285C82.3308 67.6101 81.8029 67.7277 81.6746 67.5531C79.7936 65.0093 76.9906 63.6271 74.4962 61.8535C74.2768 61.6973 74.275 61.2415 74.1728 60.9235H74.1709Z" fill="#F29096"/>
<path d="M54.5182 62.0193C53.5665 61.8043 52.6167 61.5874 51.665 61.3723C51.9438 59.845 52.2227 58.3157 52.5089 56.7461H54.8788C54.9011 58.5896 55.5034 60.3247 54.5182 62.0193Z" fill="#8F91C0"/>
<path d="M66.5094 42.6426C66.7064 43.2546 67.0577 43.863 67.0745 44.4787C67.1525 47.5004 67.1395 50.5257 67.16 53.5492C66.9239 53.1357 66.4908 52.724 66.4853 52.3067C66.4462 49.0866 66.4908 45.8646 66.5094 42.6426Z" fill="#8F91C0"/>
<path d="M94.6395 60.9119C92.751 60.9726 90.8644 61.0314 88.9759 61.092L87.5781 60.6968C88.1841 60.4946 88.79 60.1216 89.3978 60.1179C97.6971 60.0701 105.998 60.0738 114.299 60.0664C113.368 60.2888 112.437 60.5112 111.508 60.7336C105.885 60.7924 100.262 60.8531 94.6395 60.9119Z" fill="#8F91C0"/>
</svg>
