<svg width="183" height="236" viewBox="0 0 183 236" fill="none" xmlns="http://www.w3.org/2000/svg">
<path d="M46.2318 108.101C47.8652 103.687 49.4609 99.259 51.1377 94.8614C56.7727 80.0811 62.4318 65.3118 68.092 50.541C68.2913 50.0211 68.5859 49.5374 68.8372 49.0377C69.5789 49.2753 70.3653 49.4218 71.0561 49.7621C75.5358 51.9747 79.9755 54.2658 84.4695 56.4497C86.0463 57.2155 87.7915 57.6366 89.3599 58.4168C93.7665 60.6097 98.0926 62.9638 102.502 65.1495C106.399 67.0812 110.364 68.8721 114.299 70.7241C114.207 70.9228 114.209 71.1222 114.307 71.3194C114.058 71.7659 113.811 72.2109 113.564 72.6585C108.038 82.955 102.502 93.2453 96.9977 103.553C95.4648 106.425 94.0643 109.369 92.5529 112.252C89.0482 118.943 88.6828 125.759 91.6931 132.724C92.3162 134.168 92.9666 135.6 93.6045 137.036C93.0046 138.155 92.3938 138.844 90.8003 138.821C88.3971 138.789 85.8046 138.934 83.6218 139.816C80.8162 140.95 77.8381 141.332 75.0198 142.433C72.2429 143.519 69.3379 144.215 66.7583 145.846C65.2707 146.787 63.5803 147.404 61.9968 148.197C61.8639 148.264 61.8478 148.565 61.7311 148.884L63.3027 150.051C67.2706 147.471 71.2933 145.232 75.9208 144.056C82.3036 142.433 88.5356 140.087 95.3095 141.286C96.0748 143.206 96.8411 145.125 97.6064 147.046C93.0511 147.603 88.3932 147.746 83.9695 148.834C79.7182 149.88 75.7162 151.92 71.5899 153.487C66.4904 155.423 62.7159 158.923 59.7359 163.383C57.6247 161.824 56.325 159.735 55.6897 157.21C58.4338 155.119 60.8578 152.582 61.7216 150.897C60.6788 150.217 59.7475 150.039 58.7846 151.136C57.7055 152.369 56.4229 153.425 55.3586 154.668C54.8072 155.311 54.3491 155.415 53.6762 155.035C51.6534 151.425 49.6047 147.828 47.6236 144.196C47.0388 143.126 46.6426 141.954 46.1593 140.828C47.8039 141.195 48.5615 140.132 49.1809 138.913C49.5721 138.144 49.8386 137.31 50.2238 136.536C52.4885 131.99 53.5636 127.219 52.7401 122.153C52.3912 120.007 51.7952 117.899 51.2835 115.78C50.5193 112.619 49.3802 109.695 46.2262 108.099L46.2318 108.101ZM96.19 94.9652C97.405 93.3293 98.4099 92.2653 99.0606 91.0165C99.664 89.8593 101.561 89.0227 100.458 87.1135C97.193 89.4681 95.7063 91.9387 96.19 94.9652ZM52.4917 102.183C55.2394 100.829 55.4291 98.194 56.7648 96.4174C56.9636 96.1528 56.6264 95.4855 56.5067 94.8391C53.6907 97.4625 52.7237 99.1558 52.4932 102.184L52.4917 102.183ZM102.032 75.347C100.742 76.4965 99.6503 77.2545 98.8761 78.2595C98.5346 78.7038 98.7103 79.6911 98.9249 80.3434C99.0065 80.5906 99.9477 80.8175 100.33 80.6569C101.424 80.2001 102.372 77.4567 102.032 75.347ZM77.7223 128.858C79.2005 126.75 78.6251 124.611 78.8624 122.645C78.8784 122.512 78.3181 122.142 78.081 122.185C77.6868 122.256 77.1912 122.482 76.9937 122.801C75.7203 124.854 76.373 126.711 77.7223 128.858ZM70.1882 77.5407C70.9141 75.6222 71.5772 73.869 72.305 71.945C70.1942 71.4229 69.8018 73.057 69.3443 74.0394C68.8609 75.0785 68.2584 76.545 70.1896 77.5418L70.1882 77.5407ZM61.0832 118.015C57.7328 119.649 56.6967 121.439 57.7291 123.804C59.0346 122.867 60.948 119.564 61.0832 118.015ZM65.5956 88.4264C64.3172 90.3744 62.2006 91.9878 62.6143 95.2388C65.03 93.198 65.7432 90.9983 65.5956 88.4264ZM60.9374 78.4157C57.3259 82.3554 57.0083 83.1122 58.2281 84.6631C59.549 82.9655 61.2317 81.5481 60.9374 78.4157ZM88.705 101.97C89.5849 99.4936 90.2018 97.7591 90.837 95.969C89.1452 95.7743 88.9992 95.7441 88.8611 96.4177C88.538 98.002 86.8061 99.4981 88.705 101.97ZM89.0632 105.551C88.3954 107.87 86.6378 109.264 87.4567 111.652C89.4796 110.451 89.835 108.603 90.2634 106.836C90.3133 106.629 89.755 106.272 89.0632 105.551ZM77.4356 105.725C76.1666 107.79 75.2149 109.382 75.048 111.359C76.5876 111.758 77.0354 110.649 77.4229 109.811C77.8887 108.805 78.7351 107.724 77.433 105.725L77.4356 105.725ZM79.7053 74.9219C79.4407 74.7253 79.1738 74.5317 78.9091 74.3351C76.9577 75.0024 76.8832 77.0408 76.1646 78.5893C76.1174 78.6901 76.7111 79.0897 77.3443 79.6474C78.2225 77.8905 78.9652 76.406 79.7068 74.923L79.7053 74.9219ZM53.661 110.604C54.9679 111.084 55.4258 110.256 55.8689 109.498C56.4183 108.557 57.7554 107.931 57.2241 106.285C55.0313 107.091 53.9911 108.532 53.661 110.604ZM90.1677 79.9542L90.7442 80.3709C91.9819 79.1735 93.1357 77.9183 93.1799 75.8988L90.1666 79.9557L90.1677 79.9542Z" fill="#A9D6C5"/>
<path d="M76.0921 27.5697C77.4323 22.0536 80.0701 17.2411 83.77 12.9433C85.7624 10.6273 88.3128 11.0359 90.6286 11.5399C93.4351 12.1503 96.1667 13.2717 98.8064 14.4515C106.368 17.8292 113.885 21.3048 121.381 24.8271C126.435 27.2013 131.419 29.722 136.83 32.3679C133.672 37.4326 130.61 42.347 127.549 47.26C126.287 46.8315 124.954 46.5418 123.774 45.9506C120.6 44.3598 117.49 42.6419 114.357 40.967C113.962 40.7565 113.587 40.2984 113.208 40.2999C109.932 40.3218 107.526 38.0283 104.749 36.8727C101.561 35.5459 98.4765 34.135 95.1064 33.1774C89.3968 31.5554 83.8219 29.4507 78.2268 27.4416C77.3829 27.1396 76.7759 27.025 76.0921 27.5697Z" fill="#EC634C"/>
<path d="M100.884 163.643C101.6 168.77 100.9 173.822 98.6555 178.353C94.9892 185.755 86.8536 189.642 78.4436 183.794C75.2173 181.55 72.4608 178.629 69.4883 176.018C70.0306 175.813 70.7697 175.765 71.0807 175.375C72.4082 173.712 73.7588 172.036 74.8173 170.201C76.1295 167.928 78.4074 166.635 80.469 165.853C85.6955 163.874 91.0603 162.111 96.8268 162.076C98.5556 162.065 99.7788 162.472 100.883 163.644L100.884 163.643Z" fill="#EC634C"/>
<path d="M76.0918 27.569C76.7771 27.0253 77.3826 27.1388 78.2265 27.4408C83.8201 29.4489 89.3965 31.5547 95.1062 33.1767C98.4747 34.1331 101.56 35.5451 104.748 36.8719C107.527 38.0287 109.931 40.321 113.208 40.2991C113.588 40.2962 113.963 40.7543 114.357 40.9663C117.49 42.6412 120.599 44.3591 123.774 45.9498C124.954 46.541 126.286 46.8322 127.549 47.2592L127.547 47.2966C127.348 47.4528 127.315 47.6242 127.449 47.8069C127.078 48.6179 126.706 49.4316 126.334 50.2427L123.673 53.826C118.301 51.2828 113.183 48.8652 108.072 46.4371C105.751 45.3349 103.163 44.5626 101.184 43.0187C97.1665 39.8826 92.1971 39.255 87.7382 37.3251C84.9251 36.1086 81.8015 35.5989 78.8005 34.8371C77.2965 34.4548 75.7559 34.218 74.2305 33.9141C74.8505 31.7996 75.4706 29.685 76.0907 27.5705L76.0918 27.569Z" fill="#A9D6C5"/>
<path d="M71.8974 40.4968C71.7051 39.4325 71.5138 38.3668 71.32 37.3015C71.6762 37.527 72.031 37.7513 72.3988 37.983C72.877 37.0783 73.2738 36.3296 73.8327 35.2729C77.1816 36.3023 80.4836 37.2739 83.7487 38.354C84.571 38.6261 85.2672 39.6269 86.0363 39.6477C89.4934 39.7394 92.4286 41.3414 95.454 42.6511C98.5896 44.0081 101.649 45.539 104.746 46.985C109.605 49.2556 114.471 51.5132 119.329 53.792C120.534 54.3583 121.715 54.9839 122.907 55.5814C121.841 57.5378 120.776 59.4942 119.71 61.4507C118.008 60.6014 116.328 59.7079 114.601 58.9138C109.63 56.6266 104.653 54.3483 99.6478 52.1348C97.9871 51.4012 96.2343 50.8755 94.341 50.1879C93.953 49.0889 93.4764 47.696 91.5125 48.1192C90.7178 46.8564 89.2467 47.2746 88.125 46.8124C82.7606 44.6014 77.3149 42.5835 71.8989 40.4979L71.8974 40.4968Z" fill="#A9D6C5"/>
<path d="M69.479 47.1449C70.0397 45.5482 70.6004 43.9516 71.1611 42.3549C73.5501 43.1827 75.9892 43.8934 78.3186 44.8635C84.9017 47.6019 91.4691 50.3862 97.9893 53.2713C102.682 55.3468 107.311 57.5625 111.924 59.8096C114.217 60.9253 116.408 62.2531 118.645 63.484C117.618 65.2523 116.592 67.0217 115.564 68.79C109.061 66.8799 103.27 63.4102 97.2604 60.4184C92.0563 57.8268 86.8776 55.1826 81.6373 52.6677C77.6249 50.7424 73.5349 48.9805 69.4804 47.146L69.479 47.1449Z" fill="#A9D6C5"/>
<path d="M46.2311 108.101C49.3851 109.697 50.5242 112.621 51.2884 115.782C51.8001 117.901 52.3961 120.009 52.745 122.155C53.5673 127.223 52.4934 131.992 50.2287 136.538C49.8434 137.312 49.5755 138.145 49.1858 138.915C48.5664 140.134 47.8088 141.197 46.1642 140.83C43.387 137.102 41.3014 132.971 40.5781 128.419C40.1902 125.975 40.5391 123.219 41.2869 120.833C42.6476 116.498 44.5537 112.335 46.2311 108.101Z" fill="#EC634C"/>
<path d="M98.9662 149.793C99.2528 151.038 99.609 152.27 99.7932 153.528C99.8769 154.093 99.6163 154.708 99.5125 155.301C95.6528 155.18 91.7928 155.056 87.9327 154.941C87.7187 154.934 87.4619 154.951 87.2914 155.059C83.9943 157.159 80.0927 157.79 76.6169 159.435C74.9246 160.235 73.1856 161.094 71.7693 162.284C69.1546 164.481 66.7606 166.943 64.1761 169.388C63.8705 169.209 63.4036 168.934 62.9356 168.66C62.0959 167.352 61.2548 166.044 60.4151 164.736C62.1147 162.969 63.6698 161.031 65.5416 159.471C69.283 156.353 73.5328 154.129 78.1351 152.409C84.1126 150.176 90.2552 149.243 96.5606 149.05C97.3535 149.026 98.1629 149.533 98.9662 149.793Z" fill="#A9D6C5"/>
<path d="M100.884 163.643C99.7798 162.47 98.5577 162.062 96.8278 162.074C91.0613 162.11 85.6965 163.872 80.47 165.852C78.4085 166.633 76.1306 167.926 74.8183 170.199C73.7584 172.033 72.4081 173.711 71.0818 175.373C70.7707 175.764 70.0316 175.811 69.4893 176.016C68.2413 174.721 66.9959 173.425 65.7479 172.13C65.671 171.932 65.5951 171.733 65.5182 171.535L65.4751 171.245C68.1169 167.76 70.8859 164.392 74.8443 162.309C79.1327 160.051 83.716 158.577 88.4986 157.866C92.3504 157.293 96.2461 157.015 100.123 156.607C100.376 158.953 100.63 161.3 100.883 163.647L100.884 163.643Z" fill="#A9D6C5"/>
<path d="M122.907 55.582C121.715 54.9845 120.537 54.3585 119.329 53.7926C114.473 51.5149 109.607 49.2573 104.747 46.9855C101.651 45.5381 98.5899 44.0087 95.4542 42.6517C92.4273 41.3409 89.4936 39.74 86.0365 39.6482C85.2675 39.6275 84.5712 38.6267 83.749 38.3545C80.4838 37.2744 77.1807 36.3044 73.8329 35.2735C73.2741 36.3302 72.8772 37.0788 72.399 37.9836C72.0312 37.7519 71.6764 37.5275 71.3202 37.3021C72.2903 36.173 73.26 35.0414 74.2301 33.9124C75.7541 34.2151 77.2962 34.453 78.8002 34.8354C81.8012 35.5972 84.9248 36.1068 87.7379 37.3234C92.1953 39.2522 97.1647 39.8798 101.184 43.017C103.163 44.5609 105.75 45.3331 108.071 46.4354C113.184 48.8645 118.301 51.2811 123.673 53.8243C124.653 52.5047 125.493 51.3735 126.334 50.2409L122.908 55.5805L122.907 55.582Z" fill="#EC634C"/>
<path d="M69.48 47.1451C73.5345 48.9796 77.6245 50.7415 81.6369 52.6668C86.8772 55.1817 92.0548 57.8274 97.26 60.4175C103.27 63.4093 109.061 66.8775 115.564 68.7891C115.143 69.4343 114.72 70.0809 114.297 70.7249C110.362 68.8729 106.395 67.081 102.5 65.1504C98.0905 62.9646 93.7633 60.612 89.3577 58.4177C87.7894 57.6374 86.0441 57.2164 84.4673 56.4506C79.9734 54.2666 75.5336 51.9755 71.0539 49.7629C70.3631 49.4226 69.5778 49.2746 68.835 49.0385C69.0497 48.4078 69.2628 47.7761 69.4785 47.144L69.48 47.1451Z" fill="#EC634C"/>
<path d="M118.647 63.4816C116.41 62.2507 114.22 60.9241 111.926 59.8073C107.313 57.5601 102.682 55.3433 97.991 53.2689C91.4697 50.3853 84.9049 47.6006 78.3203 44.8611C75.9898 43.8925 73.5507 43.1818 71.1628 42.3526C71.4082 41.7333 71.6536 41.114 71.8979 40.4962C77.3139 42.5819 82.7595 44.5997 88.124 46.8107C89.2456 47.273 90.7168 46.8547 91.5115 48.1175C93.4753 47.6944 93.9534 49.0883 94.34 50.1862C96.2332 50.8738 97.9861 51.3995 99.6467 52.1332C104.652 54.3466 109.629 56.6249 114.6 58.9122C116.327 59.7063 118.007 60.5997 119.709 61.449C119.354 62.1253 119.001 62.8027 118.646 63.4791L118.647 63.4816Z" fill="#EC634C"/>
<path d="M98.9662 149.794C98.164 149.532 97.3546 149.025 96.5606 149.05C90.2552 149.243 84.1126 150.176 78.1351 152.409C73.5328 154.13 69.2831 156.354 65.5416 159.471C63.6698 161.032 62.1133 162.969 60.4151 164.736C60.1909 164.287 59.9641 163.837 59.7399 163.387C62.7199 158.928 66.4944 155.427 71.5939 153.491C75.7202 151.924 79.7233 149.883 83.9735 148.838C88.3986 147.751 93.0551 147.607 97.6104 147.05C98.0622 147.964 98.5155 148.878 98.9662 149.794Z" fill="#EC634C"/>
<path d="M100.123 156.603C96.2453 157.012 92.3507 157.289 88.4988 157.862C83.7178 158.575 79.133 160.048 74.8445 162.305C70.8861 164.389 68.116 167.758 65.4754 171.241C64.6292 170.38 63.783 169.519 62.9384 168.659C63.4063 168.933 63.8747 169.209 64.1788 169.387C66.7644 166.94 69.1573 164.48 71.772 162.283C73.1894 161.092 74.9273 160.234 76.6196 159.434C80.0969 157.79 83.997 157.158 87.2941 155.058C87.4646 154.95 87.7214 154.933 87.9354 154.94C91.7955 155.055 95.6555 155.178 99.5152 155.3C99.7186 155.734 99.922 156.168 100.124 156.604L100.123 156.603Z" fill="#EC634C"/>
<path d="M95.3116 141.288C88.5377 140.089 82.3068 142.433 75.9229 144.058C71.2954 145.234 67.2742 147.474 63.3047 150.054L61.7331 148.886C61.8499 148.568 61.8645 148.265 61.9989 148.199C63.5824 147.406 65.2728 146.789 66.7604 145.848C69.3389 144.219 72.2449 143.521 75.0219 142.435C77.8402 141.334 80.8198 140.953 83.6239 139.818C85.8066 138.936 88.3977 138.79 90.8024 138.823C92.3944 138.845 93.0078 138.155 93.6066 137.038C94.1756 138.456 94.7441 139.871 95.3131 141.289L95.3116 141.288Z" fill="#EC634C"/>
<path d="M53.6782 155.04C54.3511 155.42 54.8092 155.315 55.3606 154.672C56.4264 153.43 57.7075 152.373 58.7866 151.141C59.7495 150.043 60.6808 150.221 61.7236 150.901C60.8613 152.587 58.4358 155.123 55.6917 157.215C55.0207 156.49 54.3481 155.765 53.6782 155.04Z" fill="#EC634C"/>
<path d="M96.1885 94.9645C95.7034 91.9369 97.1916 89.4675 100.456 87.1129C101.559 89.0236 99.6626 89.8587 99.0592 91.0159C98.4085 92.2647 97.4047 93.3272 96.1885 94.9645Z" fill="#EC634C"/>
<path d="M52.4915 102.184C52.7235 99.1568 53.6905 97.4634 56.505 94.839C56.6248 95.4854 56.9619 96.1527 56.7631 96.4173C55.4285 98.1924 55.2388 100.827 52.49 102.183L52.4915 102.184Z" fill="#EC634C"/>
<path d="M102.031 75.348C102.373 77.4588 101.423 80.2011 100.33 80.6579C99.9472 80.8185 99.0045 80.5905 98.9244 80.3444C98.7124 79.6917 98.5341 78.7048 98.8756 78.2605C99.6472 77.2558 100.741 76.4975 102.031 75.348Z" fill="#EC634C"/>
<path d="M77.7194 128.86C76.3713 126.711 75.7174 124.855 76.9909 122.802C77.1883 122.483 77.6839 122.257 78.0782 122.186C78.3152 122.143 78.8755 122.513 78.8596 122.647C78.6237 124.614 79.1977 126.751 77.7194 128.86Z" fill="#EC634C"/>
<path d="M70.1872 77.5414C68.256 76.5446 68.8596 75.0766 69.3419 74.039C69.7993 73.0566 70.1922 71.4251 72.3026 71.9446C71.5748 73.8686 70.9117 75.6218 70.1858 77.5403L70.1872 77.5414Z" fill="#EC634C"/>
<path d="M61.0812 118.019C60.946 119.568 59.0325 122.871 57.7271 123.809C56.6947 121.443 57.7308 119.654 61.0812 118.019Z" fill="#EC634C"/>
<path d="M65.5941 88.4287C65.7429 90.9991 65.0296 93.1988 62.6128 95.2411C62.198 91.9916 64.3171 90.3778 65.5941 88.4287Z" fill="#EC634C"/>
<path d="M60.9354 78.4192C61.2282 81.5504 59.547 82.969 58.2261 84.6666C57.0078 83.1168 57.3228 82.3604 60.9354 78.4192Z" fill="#EC634C"/>
<path d="M88.7013 101.973C86.8024 99.5009 88.5343 98.0048 88.8574 96.4206C88.9955 95.7469 89.1426 95.7756 90.8333 95.9718C90.1981 97.7619 89.5801 99.4979 88.7013 101.973Z" fill="#EC634C"/>
<path d="M89.0605 105.555C89.7538 106.277 90.3107 106.633 90.2607 106.84C89.8324 108.606 89.4755 110.453 87.454 111.656C86.6336 109.266 88.3927 107.873 89.0605 105.555Z" fill="#EC634C"/>
<path d="M77.4315 105.73C78.7326 107.731 77.8862 108.811 77.4215 109.816C77.034 110.654 76.5851 111.765 75.0465 111.364C75.2135 109.387 76.1637 107.794 77.4341 105.73L77.4315 105.73Z" fill="#EC634C"/>
<path d="M79.7031 74.9251C78.9603 76.4096 78.2191 77.8951 77.3405 79.6496C76.7074 79.0918 76.1151 78.6933 76.1608 78.5914C76.8795 77.043 76.9525 75.0034 78.9054 74.3372C79.1701 74.5338 79.4369 74.7274 79.7016 74.924L79.7031 74.9251Z" fill="#EC634C"/>
<path d="M53.6588 110.608C53.99 108.534 55.0291 107.095 57.2219 106.289C57.7532 107.934 56.4146 108.559 55.8667 109.502C55.4251 110.261 54.9657 111.088 53.6588 110.608Z" fill="#EC634C"/>
<path d="M90.1664 79.9573L93.1797 75.9004C93.1359 77.9224 91.9817 79.175 90.744 80.3724L90.1675 79.9558L90.1664 79.9573Z" fill="#EC634C"/>
<path d="M154.5 136.45C152.981 149.253 151.468 162.056 149.944 174.859C149.073 182.161 151.966 188.006 157.086 192.914C158.095 193.881 159.027 194.839 159.716 196.041C156.043 196.789 152.754 198.25 149.979 200.868C146.623 204.036 142.198 205.942 139.572 210.014C137.335 213.483 135.188 216.952 134.132 220.986C133.356 220.602 132.479 220.341 131.821 219.81C128.945 217.49 126.131 215.092 123.296 212.721C124.65 208.568 124.172 204.284 123.75 200.116C123.503 197.683 122.396 195.105 120.977 193.08C119.251 190.615 116.838 188.613 114.613 186.523C114.13 186.07 113.189 186.104 112.459 185.913C112.341 183.676 112.139 181.44 112.118 179.203C111.981 164.246 111.883 149.29 111.779 134.333C111.776 133.773 111.835 133.211 111.865 132.65C115.517 132.767 119.179 132.743 122.818 133.028C133.066 133.828 143.302 134.749 153.541 135.666C153.881 135.698 154.183 136.18 154.502 136.452L154.5 136.45ZM115.915 178.753C117.375 175.261 117.391 174.099 115.997 172.685C114.735 175.834 114.708 177.857 115.915 178.753ZM147.712 159.976C148.364 157.378 148.881 155.316 149.44 153.086C147.332 152.826 147.475 154.444 147.319 155.211C147.038 156.602 145.547 158.168 147.712 159.976Z" fill="#A9D6C5"/>
<path d="M111.534 112.872C110.228 111.043 110.554 108.9 110.743 106.947C111.017 104.107 110.641 100.984 112.875 98.6543C113.608 97.8888 114.54 97.1621 115.522 96.8145C119.244 95.4943 123.095 96.1267 126.906 96.3337C129.149 96.4558 131.387 96.674 133.629 96.8145C140.36 97.2379 147.092 97.6318 153.823 98.0663C155.851 98.1976 157.872 98.4288 160.379 98.6599C158.462 103.869 159.009 109.233 157.299 114.222C157.157 113.282 156.616 112.996 155.668 112.959C150.408 112.754 145.151 112.461 139.893 112.228C137.065 112.103 134.302 111.55 131.383 112.034C128.977 112.434 126.408 111.807 123.908 111.718C122.271 111.659 120.278 111.167 119.059 111.896C116.559 113.39 114.042 112.665 111.534 112.872Z" fill="#EC634C"/>
<path d="M172.488 212.638C174.491 217.209 176.141 221.846 174.813 226.948C172.929 234.183 167.817 237.094 160.972 235.598C158.061 234.962 155.314 233.577 152.493 232.534C153.74 230.929 153.16 228.852 153.784 227.188C155.138 223.573 157.075 220.193 160.1 217.621C161.359 216.55 162.604 214.958 164.045 214.711C166.927 214.215 169.464 212.405 172.487 212.638H172.488Z" fill="#EC634C"/>
<path d="M111.533 112.871C114.041 112.666 116.558 113.389 119.058 111.895C120.277 111.166 122.268 111.658 123.907 111.717C126.407 111.806 128.976 112.433 131.382 112.033C134.299 111.549 137.064 112.102 139.893 112.227C145.151 112.46 150.407 112.753 155.667 112.958C156.615 112.995 157.156 113.281 157.299 114.221C157.156 115.872 157.015 117.525 156.867 119.23H145.523C141.322 118.786 137.129 118.106 132.917 117.963C128.698 117.821 124.459 118.196 120.231 118.385C117.223 118.518 114.217 118.716 111.209 118.884C111.157 116.871 110.335 114.816 111.533 112.869V112.871Z" fill="#A9D6C5"/>
<path d="M145.569 120.107C149.066 120.434 152.565 120.76 156.223 121.102C156.647 122.997 156.087 124.795 155.719 126.605C152.118 126.507 148.512 126.481 144.916 126.292C138.187 125.939 131.467 125.399 124.737 125.116C120.496 124.937 116.239 125.083 111.767 125.083V120.446C114.291 120.177 116.682 119.815 119.084 119.693C122.457 119.521 125.837 119.49 129.213 119.475C131.466 119.464 133.825 119.183 135.944 119.743C139.187 120.601 142.348 120.353 145.566 120.107H145.569Z" fill="#A9D6C5"/>
<path d="M155.577 130.966C155.721 131.26 156.062 131.645 155.975 131.829C155.657 132.508 155.197 133.118 154.79 133.756C149.215 133.551 143.64 133.394 138.069 133.118C135.521 132.993 132.954 132.804 130.448 132.349C124.284 131.23 118.066 131.193 111.843 131.127C111.78 130.152 111.719 129.18 111.656 128.205C111.799 127.593 111.94 126.981 112.041 126.541C126.58 125.654 140.719 127.806 154.81 128.144C155.145 129.378 155.36 130.171 155.575 130.964L155.577 130.966Z" fill="#A9D6C5"/>
<path d="M112.46 185.908C113.189 186.099 114.13 186.065 114.614 186.518C116.838 188.606 119.251 190.608 120.977 193.075C122.396 195.1 123.504 197.677 123.75 200.111C124.172 204.279 124.65 208.563 123.296 212.716C121.168 210.93 118.992 209.195 116.921 207.344C113.823 204.576 112.469 200.982 112.406 196.906C112.349 193.242 112.436 189.573 112.46 185.906V185.908Z" fill="#EC634C"/>
<path d="M139.635 225.487C138.876 225.052 138.116 224.618 137.357 224.183C138.002 222.362 135.824 221.927 135.561 220.7C136.459 218.754 137.353 216.959 138.128 215.114C139.676 211.421 142.963 209.158 145.369 206.171C147.784 205.657 148.966 203.566 150.674 202.124C153.861 199.428 157.445 197.466 161.759 197.242C162.823 198.416 163.888 199.592 164.952 200.767C164.777 200.905 164.624 201.103 164.426 201.171C156.312 204.025 150.096 209.439 144.553 215.783C142.084 218.61 140.954 222.09 139.633 225.485L139.635 225.487Z" fill="#A9D6C5"/>
<path d="M145.701 229.023C144.17 228.137 142.638 227.252 141.106 226.368C143.533 217.366 149.624 211.316 157.253 206.577C160.002 204.869 162.948 203.478 165.804 201.941C166.877 203.376 167.949 204.811 169.021 206.244C168.619 206.437 168.206 206.608 167.816 206.823C163.428 209.24 158.598 211.115 154.773 214.223C150.193 217.943 146.881 222.964 145.701 229.023Z" fill="#A9D6C5"/>
<path d="M172.488 212.637C169.464 212.404 166.928 214.214 164.046 214.71C162.603 214.957 161.359 216.548 160.101 217.62C157.077 220.192 155.139 223.57 153.786 227.187C153.161 228.851 153.741 230.928 152.495 232.533C150.402 231.679 148.022 231.298 146.773 229.057C147.24 228.071 147.694 227.078 148.177 226.1C149.065 224.303 149.681 222.28 150.918 220.764C155.915 214.636 162.314 210.477 169.864 208.092C170.74 209.608 171.614 211.122 172.49 212.639L172.488 212.637Z" fill="#A9D6C5"/>
<path d="M155.576 130.965C155.361 130.172 155.146 129.379 154.811 128.145C140.72 127.807 126.583 125.655 112.042 126.542C111.941 126.981 111.798 127.593 111.657 128.206C111.507 125.1 111.359 121.994 111.209 118.885C114.217 118.717 117.223 118.519 120.231 118.386C124.459 118.199 128.698 117.824 132.917 117.964C137.129 118.107 141.322 118.787 145.523 119.231L145.567 120.106C142.348 120.35 139.189 120.597 135.946 119.741C133.825 119.181 131.465 119.462 129.215 119.473C125.839 119.488 122.457 119.521 119.086 119.691C116.684 119.813 114.295 120.176 111.768 120.444V125.081C116.241 125.081 120.495 124.935 124.739 125.115C131.469 125.398 138.189 125.938 144.917 126.291C148.514 126.479 152.118 126.503 155.721 126.603C155.672 128.057 155.624 129.51 155.578 130.963L155.576 130.965Z" fill="#EC634C"/>
<path d="M111.845 131.127C118.068 131.194 124.285 131.23 130.449 132.349C132.955 132.804 135.522 132.993 138.07 133.118C143.642 133.394 149.218 133.551 154.791 133.756C154.695 134.653 154.599 135.552 154.502 136.449C154.182 136.177 153.882 135.692 153.541 135.663C143.303 134.747 133.066 133.827 122.818 133.024C119.179 132.739 115.517 132.763 111.865 132.647C111.86 132.14 111.852 131.634 111.847 131.129L111.845 131.127Z" fill="#EC634C"/>
<path d="M161.761 197.243C157.447 197.467 153.863 199.428 150.676 202.124C148.968 203.569 147.787 205.658 145.371 206.172C142.964 209.156 139.678 211.422 138.13 215.114C137.356 216.96 136.461 218.755 135.563 220.7C135.824 221.928 138.004 222.363 137.359 224.184C137.081 224.334 136.802 224.485 136.798 224.487C135.868 223.265 135.002 222.124 134.135 220.985C135.189 216.95 137.337 213.483 139.574 210.013C142.201 205.939 146.625 204.033 149.981 200.867C152.756 198.249 156.045 196.788 159.718 196.039C160.399 196.44 161.081 196.843 161.764 197.245L161.761 197.243Z" fill="#EC634C"/>
<path d="M169.862 208.089C162.313 210.475 155.915 214.635 150.917 220.761C149.679 222.277 149.063 224.3 148.175 226.098C147.692 227.076 147.238 228.069 146.772 229.054C146.414 229.043 146.057 229.032 145.699 229.021C146.879 222.962 150.191 217.941 154.771 214.221C158.597 211.113 163.426 209.238 167.813 206.821C168.204 206.606 168.617 206.434 169.019 206.242C169.299 206.858 169.58 207.474 169.86 208.089H169.862Z" fill="#EC634C"/>
<path d="M165.804 201.94C162.948 203.476 160.001 204.867 157.253 206.576C149.624 211.315 143.533 217.367 141.106 226.366C140.616 226.072 140.127 225.78 139.636 225.486C140.958 222.091 142.086 218.611 144.555 215.784C150.098 209.44 156.314 204.026 164.428 201.173C164.626 201.102 164.78 200.904 164.954 200.768C165.237 201.158 165.521 201.55 165.802 201.94H165.804Z" fill="#EC634C"/>
<path d="M101.249 156.597C101.032 156.528 100.958 156.373 101.023 156.129L101.282 156.316L101.247 156.599L101.249 156.597Z" fill="#EC634C"/>
<path d="M115.916 178.75C114.708 177.855 114.736 175.832 115.998 172.682C117.39 174.096 117.375 175.257 115.916 178.75Z" fill="#EC634C"/>
<path d="M147.712 159.974C145.547 158.164 147.038 156.6 147.32 155.209C147.475 154.442 147.333 152.824 149.44 153.085C148.881 155.315 148.364 157.376 147.712 159.974Z" fill="#EC634C"/>
</svg>
