<svg width="48" height="63" viewBox="0 0 48 63" fill="none" xmlns="http://www.w3.org/2000/svg">
<path d="M47.9971 34.6709C46.134 36.2334 45.582 37.099 44.9265 37.1847C33.1932 38.7301 30.5049 48.0056 27.3279 57.0582C26.5574 59.2521 24.588 61.0318 23.1677 63C22.1441 60.889 20.4162 58.8436 20.2207 56.6611C19.2978 46.3173 14.0334 39.4157 4.46217 36.2563C2.77736 35.6992 1.47781 33.9967 0 32.8226C1.20467 31.6114 2.19946 29.7632 3.64852 29.2861C15.3905 25.424 18.3058 15.7971 20.166 5.27619C20.4909 3.43366 21.7502 1.75397 22.5754 0C23.573 1.69683 25.1486 3.29369 25.4706 5.1105C27.0059 13.7718 28.8546 22.2788 36.4622 27.9064C39.7686 30.3516 43.5838 32.117 48 34.6737L47.9971 34.6709Z" fill="#FBC600"/>
</svg>
